<mxfile host="app.diagrams.net" modified="2022-02-05T16:15:36.486Z" agent="5.0 (X11)" etag="d3iyvQ-KPL0FFx3z0XWs" version="16.1.0" type="github">
  <diagram id="8mYQ9tFJFdCZUb9-reb6" name="Page-1">
    <mxGraphModel dx="1407" dy="750" grid="1" gridSize="10" guides="1" tooltips="1" connect="1" arrows="1" fold="1" page="1" pageScale="1" pageWidth="827" pageHeight="1169" background="#808080" math="0" shadow="0">
      <root>
        <mxCell id="0" />
        <mxCell id="1" parent="0" />
        <mxCell id="WOKx7JHoCVHnTNnq_0IK-1" value="app" style="shape=table;startSize=30;container=1;collapsible=0;childLayout=tableLayout;fontSize=15;fillColor=#ffe6cc;strokeColor=#d79b00;movable=1;resizable=1;rotatable=1;deletable=1;editable=1;connectable=1;fontColor=#000000;" vertex="1" parent="1">
          <mxGeometry x="10" y="50" width="1400" height="710" as="geometry" />
        </mxCell>
        <mxCell id="WOKx7JHoCVHnTNnq_0IK-2" value="" style="shape=partialRectangle;collapsible=0;dropTarget=0;fillColor=none;top=0;left=0;bottom=0;right=0;points=[[0,0.5],[1,0.5]];portConstraint=eastwest;fontSize=32;opacity=30;" vertex="1" parent="WOKx7JHoCVHnTNnq_0IK-1">
          <mxGeometry y="30" width="1400" height="140" as="geometry" />
        </mxCell>
        <mxCell id="WOKx7JHoCVHnTNnq_0IK-3" value="" style="shape=partialRectangle;html=1;whiteSpace=wrap;connectable=0;overflow=hidden;fillColor=#f5f5f5;top=0;left=0;bottom=0;right=0;pointerEvents=1;fontSize=32;opacity=30;strokeColor=#666666;fontColor=#333333;" vertex="1" parent="WOKx7JHoCVHnTNnq_0IK-2">
          <mxGeometry width="1400" height="140" as="geometry">
            <mxRectangle width="1400" height="140" as="alternateBounds" />
          </mxGeometry>
        </mxCell>
        <mxCell id="WOKx7JHoCVHnTNnq_0IK-4" value="" style="shape=partialRectangle;collapsible=0;dropTarget=0;fillColor=none;top=0;left=0;bottom=0;right=0;points=[[0,0.5],[1,0.5]];portConstraint=eastwest;fontSize=32;opacity=30;" vertex="1" parent="WOKx7JHoCVHnTNnq_0IK-1">
          <mxGeometry y="170" width="1400" height="131" as="geometry" />
        </mxCell>
        <mxCell id="WOKx7JHoCVHnTNnq_0IK-5" value="" style="shape=partialRectangle;html=1;whiteSpace=wrap;connectable=0;overflow=hidden;fillColor=#f5f5f5;top=0;left=0;bottom=0;right=0;pointerEvents=1;fontSize=32;opacity=30;fontColor=#333333;strokeColor=#666666;" vertex="1" parent="WOKx7JHoCVHnTNnq_0IK-4">
          <mxGeometry width="1400" height="131" as="geometry">
            <mxRectangle width="1400" height="131" as="alternateBounds" />
          </mxGeometry>
        </mxCell>
        <mxCell id="WOKx7JHoCVHnTNnq_0IK-6" value="" style="shape=partialRectangle;collapsible=0;dropTarget=0;fillColor=none;top=0;left=0;bottom=0;right=0;points=[[0,0.5],[1,0.5]];portConstraint=eastwest;fontSize=15;opacity=30;" vertex="1" parent="WOKx7JHoCVHnTNnq_0IK-1">
          <mxGeometry y="301" width="1400" height="409" as="geometry" />
        </mxCell>
        <mxCell id="WOKx7JHoCVHnTNnq_0IK-7" value="" style="shape=partialRectangle;html=1;whiteSpace=wrap;connectable=0;overflow=hidden;fillColor=#f5f5f5;top=0;left=0;bottom=0;right=0;pointerEvents=1;fontSize=15;opacity=30;fontColor=#333333;strokeColor=#666666;" vertex="1" parent="WOKx7JHoCVHnTNnq_0IK-6">
          <mxGeometry width="1400" height="409" as="geometry">
            <mxRectangle width="1400" height="409" as="alternateBounds" />
          </mxGeometry>
        </mxCell>
        <mxCell id="ISWFT-Lty1C0rzzajxvx-115" value="workflow" style="shape=table;startSize=30;container=1;collapsible=0;childLayout=tableLayout;fontSize=15;movable=1;resizable=1;rotatable=1;deletable=1;editable=1;connectable=1;strokeWidth=3;" vertex="1" parent="1">
          <mxGeometry x="260" y="90" width="1140" height="561" as="geometry" />
        </mxCell>
        <mxCell id="ISWFT-Lty1C0rzzajxvx-116" value="" style="shape=partialRectangle;collapsible=0;dropTarget=0;fillColor=none;top=0;left=0;bottom=0;right=0;points=[[0,0.5],[1,0.5]];portConstraint=eastwest;fontSize=32;opacity=30;movable=1;resizable=1;rotatable=1;deletable=1;editable=1;connectable=1;" vertex="1" parent="ISWFT-Lty1C0rzzajxvx-115">
          <mxGeometry y="30" width="1140" height="103" as="geometry" />
        </mxCell>
        <mxCell id="ISWFT-Lty1C0rzzajxvx-117" value="" style="shape=partialRectangle;html=1;whiteSpace=wrap;connectable=0;overflow=hidden;fillColor=none;top=0;left=0;bottom=0;right=0;pointerEvents=1;fontSize=32;opacity=30;" vertex="1" parent="ISWFT-Lty1C0rzzajxvx-116">
          <mxGeometry width="1140" height="103" as="geometry">
            <mxRectangle width="1140" height="103" as="alternateBounds" />
          </mxGeometry>
        </mxCell>
        <mxCell id="ISWFT-Lty1C0rzzajxvx-118" value="" style="shape=partialRectangle;collapsible=0;dropTarget=0;fillColor=none;top=0;left=0;bottom=0;right=0;points=[[0,0.5],[1,0.5]];portConstraint=eastwest;fontSize=32;opacity=30;movable=1;resizable=1;rotatable=1;deletable=1;editable=1;connectable=1;" vertex="1" parent="ISWFT-Lty1C0rzzajxvx-115">
          <mxGeometry y="133" width="1140" height="127" as="geometry" />
        </mxCell>
        <mxCell id="ISWFT-Lty1C0rzzajxvx-119" value="" style="shape=partialRectangle;html=1;whiteSpace=wrap;connectable=0;overflow=hidden;fillColor=none;top=0;left=0;bottom=0;right=0;pointerEvents=1;fontSize=32;opacity=30;" vertex="1" parent="ISWFT-Lty1C0rzzajxvx-118">
          <mxGeometry width="1140" height="127" as="geometry">
            <mxRectangle width="1140" height="127" as="alternateBounds" />
          </mxGeometry>
        </mxCell>
        <mxCell id="ISWFT-Lty1C0rzzajxvx-121" value="" style="shape=partialRectangle;collapsible=0;dropTarget=0;fillColor=none;top=0;left=0;bottom=0;right=0;points=[[0,0.5],[1,0.5]];portConstraint=eastwest;fontSize=15;opacity=30;movable=1;resizable=1;rotatable=1;deletable=1;editable=1;connectable=1;" vertex="1" parent="ISWFT-Lty1C0rzzajxvx-115">
          <mxGeometry y="260" width="1140" height="301" as="geometry" />
        </mxCell>
        <mxCell id="ISWFT-Lty1C0rzzajxvx-122" value="" style="shape=partialRectangle;html=1;whiteSpace=wrap;connectable=0;overflow=hidden;fillColor=none;top=0;left=0;bottom=0;right=0;pointerEvents=1;fontSize=15;opacity=30;" vertex="1" parent="ISWFT-Lty1C0rzzajxvx-121">
          <mxGeometry width="1140" height="301" as="geometry">
            <mxRectangle width="1140" height="301" as="alternateBounds" />
          </mxGeometry>
        </mxCell>
        <mxCell id="WOKx7JHoCVHnTNnq_0IK-93" style="edgeStyle=orthogonalEdgeStyle;rounded=0;orthogonalLoop=1;jettySize=auto;html=1;exitX=0.5;exitY=1;exitDx=0;exitDy=0;fontSize=11;" edge="1" parent="1" source="ISWFT-Lty1C0rzzajxvx-112" target="WOKx7JHoCVHnTNnq_0IK-92">
          <mxGeometry relative="1" as="geometry">
            <Array as="points">
              <mxPoint x="820" y="905" />
              <mxPoint x="819" y="905" />
            </Array>
          </mxGeometry>
        </mxCell>
        <mxCell id="ISWFT-Lty1C0rzzajxvx-112" value="FastAPI" style="whiteSpace=wrap;html=1;opacity=30;" vertex="1" parent="1">
          <mxGeometry x="250" y="800" width="1140" height="60" as="geometry" />
        </mxCell>
        <mxCell id="ISWFT-Lty1C0rzzajxvx-113" value="&lt;div style=&quot;font-size: 32px&quot;&gt;&lt;font style=&quot;font-size: 32px&quot;&gt;Backend System Diagrams&lt;/font&gt;&lt;/div&gt;" style="text;html=1;align=center;verticalAlign=middle;resizable=0;points=[];autosize=1;strokeColor=none;fillColor=none;" vertex="1" parent="1">
          <mxGeometry y="20" width="400" height="20" as="geometry" />
        </mxCell>
        <mxCell id="WOKx7JHoCVHnTNnq_0IK-20" style="edgeStyle=orthogonalEdgeStyle;rounded=0;orthogonalLoop=1;jettySize=auto;html=1;exitX=0.5;exitY=1;exitDx=0;exitDy=0;fontSize=11;movable=1;resizable=1;rotatable=1;deletable=1;editable=1;connectable=1;entryX=0.039;entryY=-0.029;entryDx=0;entryDy=0;entryPerimeter=0;" edge="1" parent="1" source="WOKx7JHoCVHnTNnq_0IK-11" target="ISWFT-Lty1C0rzzajxvx-112">
          <mxGeometry relative="1" as="geometry">
            <mxPoint x="295" y="780" as="targetPoint" />
            <Array as="points">
              <mxPoint x="295" y="635" />
            </Array>
          </mxGeometry>
        </mxCell>
        <mxCell id="WOKx7JHoCVHnTNnq_0IK-11" value="public" style="whiteSpace=wrap;html=1;fontSize=11;opacity=30;" vertex="1" parent="1">
          <mxGeometry x="270" y="440" width="50" height="30" as="geometry" />
        </mxCell>
        <mxCell id="ISWFT-Lty1C0rzzajxvx-114" value="tasks_tubers.py" style="whiteSpace=wrap;html=1;opacity=30;fontSize=10;" vertex="1" parent="1">
          <mxGeometry x="270" y="400" width="120.45454545454545" height="30" as="geometry" />
        </mxCell>
        <mxCell id="WOKx7JHoCVHnTNnq_0IK-8" value="tasks_players.py" style="whiteSpace=wrap;html=1;opacity=30;fontSize=10;" vertex="1" parent="1">
          <mxGeometry x="691.5454545454545" y="400" width="120.45454545454545" height="30" as="geometry" />
        </mxCell>
        <mxCell id="WOKx7JHoCVHnTNnq_0IK-9" value="tasks_users.py" style="whiteSpace=wrap;html=1;opacity=30;fontSize=10;" vertex="1" parent="1">
          <mxGeometry x="956.9954545454545" y="400" width="120.45454545454545" height="30" as="geometry" />
        </mxCell>
        <mxCell id="WOKx7JHoCVHnTNnq_0IK-10" value="&lt;div style=&quot;font-size: 10px;&quot;&gt;tasks_channels.py&lt;/div&gt;" style="whiteSpace=wrap;html=1;opacity=30;fontSize=10;" vertex="1" parent="1">
          <mxGeometry x="826.9954545454545" y="400" width="120.45454545454545" height="30" as="geometry" />
        </mxCell>
        <mxCell id="WOKx7JHoCVHnTNnq_0IK-33" style="edgeStyle=orthogonalEdgeStyle;rounded=0;orthogonalLoop=1;jettySize=auto;html=1;exitX=0.5;exitY=1;exitDx=0;exitDy=0;fontSize=11;" edge="1" parent="1" source="WOKx7JHoCVHnTNnq_0IK-13" target="WOKx7JHoCVHnTNnq_0IK-28">
          <mxGeometry relative="1" as="geometry" />
        </mxCell>
        <mxCell id="WOKx7JHoCVHnTNnq_0IK-13" value="private" style="whiteSpace=wrap;html=1;fontSize=11;opacity=30;" vertex="1" parent="1">
          <mxGeometry x="330" y="440" width="50" height="30" as="geometry" />
        </mxCell>
        <mxCell id="WOKx7JHoCVHnTNnq_0IK-34" style="edgeStyle=orthogonalEdgeStyle;rounded=0;orthogonalLoop=1;jettySize=auto;html=1;exitX=0.5;exitY=1;exitDx=0;exitDy=0;entryX=0.5;entryY=0;entryDx=0;entryDy=0;fontSize=11;" edge="1" parent="1" source="WOKx7JHoCVHnTNnq_0IK-14" target="WOKx7JHoCVHnTNnq_0IK-29">
          <mxGeometry relative="1" as="geometry" />
        </mxCell>
        <mxCell id="WOKx7JHoCVHnTNnq_0IK-14" value="private" style="whiteSpace=wrap;html=1;fontSize=11;opacity=30;" vertex="1" parent="1">
          <mxGeometry x="750" y="440" width="50" height="30" as="geometry" />
        </mxCell>
        <mxCell id="WOKx7JHoCVHnTNnq_0IK-88" style="edgeStyle=orthogonalEdgeStyle;rounded=0;orthogonalLoop=1;jettySize=auto;html=1;exitX=0.5;exitY=1;exitDx=0;exitDy=0;entryX=0.408;entryY=0.114;entryDx=0;entryDy=0;entryPerimeter=0;fontSize=11;" edge="1" parent="1" source="WOKx7JHoCVHnTNnq_0IK-15" target="ISWFT-Lty1C0rzzajxvx-112">
          <mxGeometry relative="1" as="geometry" />
        </mxCell>
        <mxCell id="WOKx7JHoCVHnTNnq_0IK-15" value="public" style="whiteSpace=wrap;html=1;fontSize=11;opacity=30;" vertex="1" parent="1">
          <mxGeometry x="690" y="440" width="50" height="30" as="geometry" />
        </mxCell>
        <mxCell id="WOKx7JHoCVHnTNnq_0IK-16" value="masked" style="whiteSpace=wrap;html=1;fontSize=11;opacity=30;" vertex="1" parent="1">
          <mxGeometry x="270" y="370" width="120" height="20" as="geometry" />
        </mxCell>
        <mxCell id="WOKx7JHoCVHnTNnq_0IK-17" value="masked" style="whiteSpace=wrap;html=1;fontSize=11;opacity=30;" vertex="1" parent="1">
          <mxGeometry x="691" y="370" width="120" height="20" as="geometry" />
        </mxCell>
        <mxCell id="WOKx7JHoCVHnTNnq_0IK-18" value="masked" style="whiteSpace=wrap;html=1;fontSize=11;opacity=30;" vertex="1" parent="1">
          <mxGeometry x="957.45" y="370" width="120" height="20" as="geometry" />
        </mxCell>
        <mxCell id="WOKx7JHoCVHnTNnq_0IK-19" value="masked" style="whiteSpace=wrap;html=1;fontSize=11;opacity=30;" vertex="1" parent="1">
          <mxGeometry x="827.45" y="370" width="120" height="20" as="geometry" />
        </mxCell>
        <mxCell id="WOKx7JHoCVHnTNnq_0IK-36" style="edgeStyle=orthogonalEdgeStyle;rounded=0;orthogonalLoop=1;jettySize=auto;html=1;exitX=0.5;exitY=1;exitDx=0;exitDy=0;entryX=0.5;entryY=0;entryDx=0;entryDy=0;fontSize=11;" edge="1" parent="1" source="WOKx7JHoCVHnTNnq_0IK-22" target="WOKx7JHoCVHnTNnq_0IK-31">
          <mxGeometry relative="1" as="geometry" />
        </mxCell>
        <mxCell id="WOKx7JHoCVHnTNnq_0IK-22" value="private" style="whiteSpace=wrap;html=1;fontSize=11;opacity=30;" vertex="1" parent="1">
          <mxGeometry x="1017" y="440" width="50" height="30" as="geometry" />
        </mxCell>
        <mxCell id="WOKx7JHoCVHnTNnq_0IK-27" style="edgeStyle=orthogonalEdgeStyle;rounded=0;orthogonalLoop=1;jettySize=auto;html=1;exitX=0.5;exitY=1;exitDx=0;exitDy=0;fontSize=11;movable=1;resizable=1;rotatable=1;deletable=1;editable=1;connectable=1;entryX=0.643;entryY=0.007;entryDx=0;entryDy=0;entryPerimeter=0;" edge="1" parent="1" source="WOKx7JHoCVHnTNnq_0IK-23" target="ISWFT-Lty1C0rzzajxvx-112">
          <mxGeometry relative="1" as="geometry">
            <mxPoint x="983" y="780" as="targetPoint" />
          </mxGeometry>
        </mxCell>
        <mxCell id="WOKx7JHoCVHnTNnq_0IK-23" value="public" style="whiteSpace=wrap;html=1;fontSize=11;opacity=30;" vertex="1" parent="1">
          <mxGeometry x="957.45" y="440" width="50" height="30" as="geometry" />
        </mxCell>
        <mxCell id="WOKx7JHoCVHnTNnq_0IK-35" style="edgeStyle=orthogonalEdgeStyle;rounded=0;orthogonalLoop=1;jettySize=auto;html=1;exitX=0.5;exitY=1;exitDx=0;exitDy=0;entryX=0.5;entryY=0;entryDx=0;entryDy=0;fontSize=11;" edge="1" parent="1" source="WOKx7JHoCVHnTNnq_0IK-24" target="WOKx7JHoCVHnTNnq_0IK-30">
          <mxGeometry relative="1" as="geometry" />
        </mxCell>
        <mxCell id="WOKx7JHoCVHnTNnq_0IK-24" value="private" style="whiteSpace=wrap;html=1;fontSize=11;opacity=30;" vertex="1" parent="1">
          <mxGeometry x="887" y="440" width="50" height="30" as="geometry" />
        </mxCell>
        <mxCell id="WOKx7JHoCVHnTNnq_0IK-26" style="edgeStyle=orthogonalEdgeStyle;rounded=0;orthogonalLoop=1;jettySize=auto;html=1;exitX=0.5;exitY=1;exitDx=0;exitDy=0;fontSize=11;movable=1;resizable=1;rotatable=1;deletable=1;editable=1;connectable=1;entryX=0.528;entryY=-0.005;entryDx=0;entryDy=0;entryPerimeter=0;" edge="1" parent="1" source="WOKx7JHoCVHnTNnq_0IK-25" target="ISWFT-Lty1C0rzzajxvx-112">
          <mxGeometry relative="1" as="geometry">
            <mxPoint x="852" y="780" as="targetPoint" />
          </mxGeometry>
        </mxCell>
        <mxCell id="WOKx7JHoCVHnTNnq_0IK-25" value="public" style="whiteSpace=wrap;html=1;fontSize=11;opacity=30;" vertex="1" parent="1">
          <mxGeometry x="827" y="440" width="50" height="30" as="geometry" />
        </mxCell>
        <mxCell id="WOKx7JHoCVHnTNnq_0IK-37" style="edgeStyle=orthogonalEdgeStyle;rounded=0;orthogonalLoop=1;jettySize=auto;html=1;exitX=0.5;exitY=1;exitDx=0;exitDy=0;fontSize=11;movable=1;resizable=1;rotatable=1;deletable=1;editable=1;connectable=1;entryX=0.092;entryY=0.033;entryDx=0;entryDy=0;entryPerimeter=0;" edge="1" parent="1" source="WOKx7JHoCVHnTNnq_0IK-28" target="ISWFT-Lty1C0rzzajxvx-112">
          <mxGeometry relative="1" as="geometry">
            <mxPoint x="355" y="780" as="targetPoint" />
          </mxGeometry>
        </mxCell>
        <mxCell id="WOKx7JHoCVHnTNnq_0IK-28" value="Auth" style="whiteSpace=wrap;html=1;fontSize=11;opacity=30;fillColor=#f8cecc;strokeColor=#b85450;" vertex="1" parent="1">
          <mxGeometry x="330" y="610" width="50" height="30" as="geometry" />
        </mxCell>
        <mxCell id="WOKx7JHoCVHnTNnq_0IK-38" style="edgeStyle=orthogonalEdgeStyle;rounded=0;orthogonalLoop=1;jettySize=auto;html=1;exitX=0.5;exitY=1;exitDx=0;exitDy=0;fontSize=11;movable=1;resizable=1;rotatable=1;deletable=1;editable=1;connectable=1;entryX=0.46;entryY=0.019;entryDx=0;entryDy=0;entryPerimeter=0;" edge="1" parent="1" source="WOKx7JHoCVHnTNnq_0IK-29" target="ISWFT-Lty1C0rzzajxvx-112">
          <mxGeometry relative="1" as="geometry">
            <mxPoint x="775" y="780" as="targetPoint" />
          </mxGeometry>
        </mxCell>
        <mxCell id="WOKx7JHoCVHnTNnq_0IK-29" value="Auth" style="whiteSpace=wrap;html=1;fontSize=11;opacity=30;fillColor=#f8cecc;strokeColor=#b85450;" vertex="1" parent="1">
          <mxGeometry x="750" y="610" width="50" height="30" as="geometry" />
        </mxCell>
        <mxCell id="WOKx7JHoCVHnTNnq_0IK-39" style="edgeStyle=orthogonalEdgeStyle;rounded=0;orthogonalLoop=1;jettySize=auto;html=1;exitX=0.5;exitY=1;exitDx=0;exitDy=0;fontSize=11;movable=1;resizable=1;rotatable=1;deletable=1;editable=1;connectable=1;entryX=0.58;entryY=-0.029;entryDx=0;entryDy=0;entryPerimeter=0;" edge="1" parent="1" source="WOKx7JHoCVHnTNnq_0IK-30" target="ISWFT-Lty1C0rzzajxvx-112">
          <mxGeometry relative="1" as="geometry">
            <mxPoint x="912" y="780" as="targetPoint" />
          </mxGeometry>
        </mxCell>
        <mxCell id="WOKx7JHoCVHnTNnq_0IK-30" value="Auth" style="whiteSpace=wrap;html=1;fontSize=11;opacity=30;fillColor=#f8cecc;strokeColor=#b85450;" vertex="1" parent="1">
          <mxGeometry x="887" y="610" width="50" height="30" as="geometry" />
        </mxCell>
        <mxCell id="WOKx7JHoCVHnTNnq_0IK-40" style="edgeStyle=orthogonalEdgeStyle;rounded=0;orthogonalLoop=1;jettySize=auto;html=1;exitX=0.5;exitY=1;exitDx=0;exitDy=0;fontSize=11;movable=1;resizable=1;rotatable=1;deletable=1;editable=1;connectable=1;entryX=0.695;entryY=0.031;entryDx=0;entryDy=0;entryPerimeter=0;" edge="1" parent="1" source="WOKx7JHoCVHnTNnq_0IK-31" target="ISWFT-Lty1C0rzzajxvx-112">
          <mxGeometry relative="1" as="geometry">
            <mxPoint x="1042" y="780" as="targetPoint" />
          </mxGeometry>
        </mxCell>
        <mxCell id="WOKx7JHoCVHnTNnq_0IK-31" value="Auth" style="whiteSpace=wrap;html=1;fontSize=11;opacity=30;fillColor=#f8cecc;strokeColor=#b85450;" vertex="1" parent="1">
          <mxGeometry x="1017" y="610" width="50" height="30" as="geometry" />
        </mxCell>
        <mxCell id="WOKx7JHoCVHnTNnq_0IK-41" value="tasks_sites.py" style="whiteSpace=wrap;html=1;opacity=30;fontSize=10;" vertex="1" parent="1">
          <mxGeometry x="1087" y="400" width="120.45454545454545" height="30" as="geometry" />
        </mxCell>
        <mxCell id="WOKx7JHoCVHnTNnq_0IK-50" value="masked" style="whiteSpace=wrap;html=1;fontSize=11;opacity=30;" vertex="1" parent="1">
          <mxGeometry x="1087" y="370" width="120" height="20" as="geometry" />
        </mxCell>
        <mxCell id="WOKx7JHoCVHnTNnq_0IK-90" style="edgeStyle=orthogonalEdgeStyle;rounded=0;orthogonalLoop=1;jettySize=auto;html=1;exitX=0.5;exitY=1;exitDx=0;exitDy=0;entryX=0.756;entryY=0;entryDx=0;entryDy=0;entryPerimeter=0;fontSize=11;" edge="1" parent="1" source="WOKx7JHoCVHnTNnq_0IK-52" target="ISWFT-Lty1C0rzzajxvx-112">
          <mxGeometry relative="1" as="geometry" />
        </mxCell>
        <mxCell id="WOKx7JHoCVHnTNnq_0IK-52" value="public" style="whiteSpace=wrap;html=1;fontSize=11;opacity=30;" vertex="1" parent="1">
          <mxGeometry x="1087" y="440" width="50" height="30" as="geometry" />
        </mxCell>
        <mxCell id="WOKx7JHoCVHnTNnq_0IK-54" style="edgeStyle=orthogonalEdgeStyle;rounded=0;orthogonalLoop=1;jettySize=auto;html=1;exitX=0.5;exitY=1;exitDx=0;exitDy=0;fontSize=11;movable=1;resizable=1;rotatable=1;deletable=1;editable=1;connectable=1;entryX=0.809;entryY=-0.04;entryDx=0;entryDy=0;entryPerimeter=0;" edge="1" parent="1" source="WOKx7JHoCVHnTNnq_0IK-67" target="ISWFT-Lty1C0rzzajxvx-112">
          <mxGeometry relative="1" as="geometry">
            <mxPoint x="1172" y="780" as="targetPoint" />
          </mxGeometry>
        </mxCell>
        <mxCell id="WOKx7JHoCVHnTNnq_0IK-69" style="edgeStyle=orthogonalEdgeStyle;rounded=0;orthogonalLoop=1;jettySize=auto;html=1;exitX=0.5;exitY=1;exitDx=0;exitDy=0;entryX=0.5;entryY=0;entryDx=0;entryDy=0;fontSize=11;" edge="1" parent="1" source="WOKx7JHoCVHnTNnq_0IK-53" target="WOKx7JHoCVHnTNnq_0IK-68">
          <mxGeometry relative="1" as="geometry" />
        </mxCell>
        <mxCell id="WOKx7JHoCVHnTNnq_0IK-53" value="private" style="whiteSpace=wrap;html=1;fontSize=11;opacity=30;" vertex="1" parent="1">
          <mxGeometry x="1146.55" y="440" width="50" height="30" as="geometry" />
        </mxCell>
        <mxCell id="WOKx7JHoCVHnTNnq_0IK-65" style="edgeStyle=orthogonalEdgeStyle;rounded=0;orthogonalLoop=1;jettySize=auto;html=1;exitX=1;exitY=0.5;exitDx=0;exitDy=0;entryX=0;entryY=0.5;entryDx=0;entryDy=0;fontSize=11;" edge="1" parent="1" source="WOKx7JHoCVHnTNnq_0IK-55" target="ISWFT-Lty1C0rzzajxvx-121">
          <mxGeometry relative="1" as="geometry" />
        </mxCell>
        <mxCell id="WOKx7JHoCVHnTNnq_0IK-55" value="db" style="whiteSpace=wrap;html=1;fontSize=11;opacity=30;" vertex="1" parent="1">
          <mxGeometry x="70" y="360" width="120" height="60" as="geometry" />
        </mxCell>
        <mxCell id="WOKx7JHoCVHnTNnq_0IK-57" style="edgeStyle=orthogonalEdgeStyle;rounded=0;orthogonalLoop=1;jettySize=auto;html=1;exitX=0.5;exitY=1;exitDx=0;exitDy=0;entryX=0.5;entryY=0;entryDx=0;entryDy=0;fontSize=11;" edge="1" parent="1" source="WOKx7JHoCVHnTNnq_0IK-56" target="WOKx7JHoCVHnTNnq_0IK-55">
          <mxGeometry relative="1" as="geometry" />
        </mxCell>
        <mxCell id="WOKx7JHoCVHnTNnq_0IK-56" value="&lt;div&gt;dbctrl&lt;/div&gt;&lt;div&gt;(for migration)&lt;br&gt;&lt;/div&gt;" style="whiteSpace=wrap;html=1;fontSize=11;opacity=30;" vertex="1" parent="1">
          <mxGeometry x="70" y="255" width="120" height="60" as="geometry" />
        </mxCell>
        <mxCell id="WOKx7JHoCVHnTNnq_0IK-58" value="&lt;div&gt;api&lt;/div&gt;&lt;div&gt;dependencies&lt;/div&gt;&lt;div&gt;v0 - per version&lt;/div&gt;" style="whiteSpace=wrap;html=1;fontSize=11;opacity=30;" vertex="1" parent="1">
          <mxGeometry x="250" y="680" width="1140" height="60" as="geometry" />
        </mxCell>
        <mxCell id="WOKx7JHoCVHnTNnq_0IK-66" style="edgeStyle=orthogonalEdgeStyle;rounded=0;orthogonalLoop=1;jettySize=auto;html=1;exitX=0.5;exitY=1;exitDx=0;exitDy=0;entryX=0;entryY=0.5;entryDx=0;entryDy=0;fontSize=11;" edge="1" parent="1" source="WOKx7JHoCVHnTNnq_0IK-59" target="ISWFT-Lty1C0rzzajxvx-112">
          <mxGeometry relative="1" as="geometry" />
        </mxCell>
        <mxCell id="WOKx7JHoCVHnTNnq_0IK-59" value="&lt;div&gt;core&lt;/div&gt;&lt;div&gt;(for auth, fastapi configuration and worker control)&lt;br&gt;&lt;/div&gt;" style="whiteSpace=wrap;html=1;fontSize=11;opacity=30;" vertex="1" parent="1">
          <mxGeometry x="20" y="680" width="120" height="60" as="geometry" />
        </mxCell>
        <mxCell id="WOKx7JHoCVHnTNnq_0IK-67" value="Auth" style="whiteSpace=wrap;html=1;fontSize=11;opacity=30;fillColor=#f8cecc;strokeColor=#b85450;" vertex="1" parent="1">
          <mxGeometry x="1147" y="610" width="50" height="30" as="geometry" />
        </mxCell>
        <mxCell id="WOKx7JHoCVHnTNnq_0IK-70" style="edgeStyle=orthogonalEdgeStyle;rounded=0;orthogonalLoop=1;jettySize=auto;html=1;exitX=0.5;exitY=1;exitDx=0;exitDy=0;entryX=0.5;entryY=0;entryDx=0;entryDy=0;fontSize=11;" edge="1" parent="1" source="WOKx7JHoCVHnTNnq_0IK-68" target="WOKx7JHoCVHnTNnq_0IK-67">
          <mxGeometry relative="1" as="geometry" />
        </mxCell>
        <mxCell id="WOKx7JHoCVHnTNnq_0IK-68" value="Service" style="whiteSpace=wrap;html=1;fontSize=11;opacity=30;fillColor=#dae8fc;strokeColor=#6c8ebf;" vertex="1" parent="1">
          <mxGeometry x="1146.55" y="510" width="50" height="30" as="geometry" />
        </mxCell>
        <mxCell id="WOKx7JHoCVHnTNnq_0IK-71" value="masked" style="whiteSpace=wrap;html=1;fontSize=11;opacity=30;" vertex="1" parent="1">
          <mxGeometry x="400" y="370" width="120" height="20" as="geometry" />
        </mxCell>
        <mxCell id="WOKx7JHoCVHnTNnq_0IK-72" value="tasks_services.py" style="whiteSpace=wrap;html=1;opacity=30;fontSize=10;fillColor=#dae8fc;strokeColor=#6c8ebf;" vertex="1" parent="1">
          <mxGeometry x="400" y="400" width="120.45454545454545" height="30" as="geometry" />
        </mxCell>
        <mxCell id="WOKx7JHoCVHnTNnq_0IK-87" style="edgeStyle=orthogonalEdgeStyle;rounded=0;orthogonalLoop=1;jettySize=auto;html=1;exitX=0.5;exitY=1;exitDx=0;exitDy=0;entryX=0.154;entryY=0.034;entryDx=0;entryDy=0;entryPerimeter=0;fontSize=11;" edge="1" parent="1" source="WOKx7JHoCVHnTNnq_0IK-73" target="ISWFT-Lty1C0rzzajxvx-112">
          <mxGeometry relative="1" as="geometry" />
        </mxCell>
        <mxCell id="WOKx7JHoCVHnTNnq_0IK-73" value="public" style="whiteSpace=wrap;html=1;fontSize=11;opacity=30;" vertex="1" parent="1">
          <mxGeometry x="400" y="440" width="50" height="30" as="geometry" />
        </mxCell>
        <mxCell id="WOKx7JHoCVHnTNnq_0IK-76" value="masked" style="whiteSpace=wrap;html=1;fontSize=11;opacity=30;" vertex="1" parent="1">
          <mxGeometry x="530" y="370" width="120" height="20" as="geometry" />
        </mxCell>
        <mxCell id="WOKx7JHoCVHnTNnq_0IK-77" value="tasks_devices.py" style="whiteSpace=wrap;html=1;opacity=30;fontSize=10;fillColor=#dae8fc;strokeColor=#6c8ebf;" vertex="1" parent="1">
          <mxGeometry x="530" y="400" width="120.45454545454545" height="30" as="geometry" />
        </mxCell>
        <mxCell id="WOKx7JHoCVHnTNnq_0IK-79" style="edgeStyle=orthogonalEdgeStyle;rounded=0;orthogonalLoop=1;jettySize=auto;html=1;exitX=0.5;exitY=1;exitDx=0;exitDy=0;fontSize=11;entryX=0.268;entryY=0.02;entryDx=0;entryDy=0;entryPerimeter=0;" edge="1" parent="1" source="WOKx7JHoCVHnTNnq_0IK-78" target="ISWFT-Lty1C0rzzajxvx-112">
          <mxGeometry relative="1" as="geometry">
            <mxPoint x="555" y="780" as="targetPoint" />
          </mxGeometry>
        </mxCell>
        <mxCell id="WOKx7JHoCVHnTNnq_0IK-78" value="public" style="whiteSpace=wrap;html=1;fontSize=11;opacity=30;" vertex="1" parent="1">
          <mxGeometry x="530" y="440" width="50" height="30" as="geometry" />
        </mxCell>
        <mxCell id="WOKx7JHoCVHnTNnq_0IK-42" value="tasks_event.py" style="whiteSpace=wrap;html=1;opacity=30;fontSize=10;" vertex="1" parent="1">
          <mxGeometry x="414.55" y="230" width="120.45383979988164" height="50" as="geometry" />
        </mxCell>
        <mxCell id="WOKx7JHoCVHnTNnq_0IK-43" value="&lt;div style=&quot;font-size: 10px&quot;&gt;tasks_res_generator.py&lt;/div&gt;" style="whiteSpace=wrap;html=1;opacity=30;fontSize=10;" vertex="1" parent="1">
          <mxGeometry x="550.4492038617684" y="230" width="120.45383979988164" height="50" as="geometry" />
        </mxCell>
        <mxCell id="WOKx7JHoCVHnTNnq_0IK-80" value="&lt;div style=&quot;font-size: 10px&quot;&gt;tasks_statistics.py&lt;/div&gt;&lt;div style=&quot;font-size: 10px&quot;&gt;(profiling for users statistics)&lt;br&gt;&lt;/div&gt;" style="whiteSpace=wrap;html=1;opacity=30;fontSize=10;" vertex="1" parent="1">
          <mxGeometry x="679.9984449235203" y="230" width="120.45383979988164" height="50" as="geometry" />
        </mxCell>
        <mxCell id="WOKx7JHoCVHnTNnq_0IK-81" value="&lt;div style=&quot;font-size: 10px&quot;&gt;tasks_automation.py&lt;/div&gt;&lt;div style=&quot;font-size: 10px&quot;&gt;(updating resources)&lt;br&gt;&lt;/div&gt;" style="whiteSpace=wrap;html=1;opacity=30;fontSize=10;" vertex="1" parent="1">
          <mxGeometry x="809.997683349053" y="230" width="120.45383979988164" height="50" as="geometry" />
        </mxCell>
        <mxCell id="WOKx7JHoCVHnTNnq_0IK-82" value="&lt;div style=&quot;font-size: 10px&quot;&gt;tasks_bot.py&lt;/div&gt;" style="whiteSpace=wrap;html=1;opacity=30;fontSize=10;" vertex="1" parent="1">
          <mxGeometry x="939.9969217745856" y="230" width="120.45383979988164" height="50" as="geometry" />
        </mxCell>
        <mxCell id="WOKx7JHoCVHnTNnq_0IK-83" value="&lt;div style=&quot;font-size: 10px&quot;&gt;tasks_accessctrl.py&lt;/div&gt;" style="whiteSpace=wrap;html=1;opacity=30;fontSize=10;" vertex="1" parent="1">
          <mxGeometry x="1069.9961602001183" y="230" width="120.45383979988164" height="50" as="geometry" />
        </mxCell>
        <mxCell id="WOKx7JHoCVHnTNnq_0IK-85" value="&lt;div style=&quot;font-size: 10px&quot;&gt;tasks_ev_generator.py&lt;/div&gt;" style="whiteSpace=wrap;html=1;opacity=30;fontSize=10;" vertex="1" parent="1">
          <mxGeometry x="550.4492038617684" y="290" width="120.45383979988164" height="50" as="geometry" />
        </mxCell>
        <mxCell id="WOKx7JHoCVHnTNnq_0IK-92" value="" style="sketch=0;pointerEvents=1;shadow=0;dashed=0;html=1;strokeColor=#666666;fillColor=#f5f5f5;aspect=fixed;labelPosition=center;verticalLabelPosition=bottom;verticalAlign=top;align=center;outlineConnect=0;shape=mxgraph.vvd.web_browser;fontSize=11;fontColor=#333333;" vertex="1" parent="1">
          <mxGeometry x="740" y="950" width="162.68" height="115.5" as="geometry" />
        </mxCell>
        <mxCell id="WOKx7JHoCVHnTNnq_0IK-94" value="Access API via Reactjs" style="text;html=1;align=center;verticalAlign=middle;resizable=0;points=[];autosize=1;strokeColor=none;fillColor=none;fontSize=20;fontColor=#FFFFFF;" vertex="1" parent="1">
          <mxGeometry x="827" y="890" width="220" height="30" as="geometry" />
        </mxCell>
      </root>
    </mxGraphModel>
  </diagram>
</mxfile>
